<?xml version="1.0" standalone="no"?>
<!DOCTYPE svg PUBLIC "-//W3C//DTD SVG 20010904//EN"
 "http://www.w3.org/TR/2001/REC-SVG-20010904/DTD/svg10.dtd">
<svg version="1.0" xmlns="http://www.w3.org/2000/svg"
 width="432.000000pt" height="432.000000pt" viewBox="0 0 432.000000 432.000000"
 preserveAspectRatio="xMidYMid meet">
<metadata>
Created by potrace 1.14, written by Peter Selinger 2001-2017
</metadata>
<g transform="translate(0.000000,432.000000) scale(0.100000,-0.100000)"
fill="#000000" stroke="none">
<path d="M1840 4048 c-95 -6 -145 -15 -210 -38 -47 -16 -114 -34 -149 -40 -35
-6 -81 -22 -102 -36 -21 -13 -42 -24 -47 -24 -4 0 -44 -24 -89 -53 -98 -64
-208 -157 -249 -211 -68 -91 -94 -132 -94 -149 0 -10 -15 -51 -34 -91 -19 -41
-40 -102 -46 -137 -7 -35 -18 -92 -26 -126 -8 -34 -14 -78 -14 -97 0 -20 -5
-55 -10 -78 -45 -191 -48 -244 -25 -378 8 -47 20 -114 25 -150 6 -35 30 -114
54 -175 51 -129 62 -164 71 -225 7 -51 25 -110 37 -124 11 -13 10 51 -2 158
-7 57 -7 93 -1 99 10 10 15 -11 24 -98 6 -51 26 -102 35 -90 4 6 24 18 45 27
28 13 37 14 37 5 0 -7 -5 -18 -11 -24 -7 -7 -9 -18 -6 -27 10 -26 131 -13 208
23 35 17 70 31 77 31 21 0 92 40 144 81 56 44 68 47 68 20 0 -24 16 -36 26
-19 4 7 9 39 10 73 2 33 6 76 11 95 9 44 5 204 -7 208 -4 2 -6 12 -3 22 3 11
-4 31 -16 46 -12 15 -21 23 -21 19 0 -4 -7 -2 -15 5 -8 7 -15 9 -15 5 0 -3
-12 3 -26 14 -26 20 -60 29 -50 13 5 -9 4 -9 -119 -15 -55 -3 -102 -11 -120
-21 -16 -9 -39 -16 -50 -16 -11 0 -43 -9 -71 -20 -29 -10 -54 -17 -56 -15 -7
8 -88 -65 -88 -79 0 -7 -9 -21 -20 -31 -25 -23 -27 -18 -34 110 -18 302 -18
329 -2 398 30 127 93 236 183 316 57 51 73 60 73 41 0 -15 28 -12 37 3 15 24
65 38 102 27 36 -10 44 -8 78 23 14 12 39 21 65 22 24 1 56 7 71 13 16 7 32
12 37 12 5 0 44 16 86 36 43 20 92 37 109 38 32 3 90 29 100 46 3 5 18 10 33
10 15 0 35 7 45 15 11 7 25 11 32 9 7 -3 15 2 18 10 13 34 139 14 168 -27 11
-15 117 -38 133 -29 14 8 76 8 76 0 0 -11 66 -4 82 9 8 7 24 10 36 6 13 -3 22
-1 22 6 0 15 65 14 93 -1 35 -21 103 -121 92 -138 -3 -4 0 -10 5 -12 10 -3 25
-46 37 -110 3 -16 10 -28 16 -28 6 0 7 -3 4 -7 -4 -3 1 -15 10 -25 15 -17 15
-20 3 -28 -13 -8 -13 -10 0 -10 10 0 16 -10 18 -26 1 -15 7 -32 12 -39 6 -7 7
-26 4 -43 -5 -24 -1 -36 19 -56 21 -21 23 -27 11 -37 -16 -13 -19 -39 -4 -39
6 0 10 -10 10 -21 0 -17 -3 -19 -14 -10 -11 10 -15 4 -18 -29 -4 -45 -3 -46
18 -25 22 21 33 19 46 -10 8 -19 8 -28 -2 -40 -10 -13 -9 -15 9 -15 11 0 21
-6 21 -14 0 -8 4 -16 10 -18 13 -4 20 -68 8 -68 -6 0 -12 9 -15 20 -5 20 -18
26 -27 12 -2 -4 6 -17 18 -29 20 -20 25 -20 48 -9 25 13 26 13 31 -18 7 -44
30 -106 40 -106 4 0 3 -10 -4 -21 -8 -16 -13 -18 -19 -9 -6 9 -9 9 -15 1 -4
-7 -2 -18 4 -25 6 -7 8 -22 4 -32 -7 -18 -6 -18 11 -1 18 18 37 15 35 -6 0 -9
-2 -8 -6 1 -2 6 -9 9 -14 6 -6 -3 -5 -11 2 -20 9 -11 8 -14 -2 -14 -9 0 -10
-3 -4 -8 18 -12 46 -62 36 -62 -6 0 -8 -6 -5 -14 3 -7 -2 -16 -11 -20 -9 -3
-13 -11 -10 -17 4 -6 13 -8 21 -5 11 4 12 1 5 -12 -5 -9 -10 -21 -11 -27 0 -5
-12 -9 -26 -8 -22 2 -23 0 -9 -13 21 -22 19 -51 -5 -64 -12 -7 -18 -16 -13
-23 12 -19 11 -49 -1 -37 -28 28 -66 -9 -66 -65 0 -19 -4 -22 -22 -19 -13 2
-18 2 -11 -2 15 -7 -11 -34 -50 -51 -15 -7 -27 -20 -27 -29 0 -13 -3 -14 -15
-4 -12 10 -15 10 -15 -2 0 -13 -10 -16 -71 -21 -24 -2 -29 -6 -25 -20 4 -16 0
-18 -19 -13 -20 5 -26 2 -31 -19 -4 -17 -11 -24 -20 -21 -8 3 -14 1 -14 -5 0
-6 -7 -6 -21 1 -15 9 -24 8 -37 -2 -14 -11 -15 -11 -9 5 6 15 3 17 -13 12 -11
-4 -20 -2 -20 3 0 5 -17 13 -37 16 -65 12 -71 15 -66 36 3 11 10 20 17 21 22
2 -69 27 -101 28 -18 1 -33 6 -33 12 0 7 10 9 27 4 24 -6 25 -5 13 10 -8 9
-22 14 -32 12 -10 -3 -35 -1 -54 5 -20 5 -43 7 -52 3 -21 -8 -28 -6 -24 6 1 5
-5 9 -13 9 -8 0 -15 5 -15 11 0 5 -4 8 -9 5 -5 -3 -12 1 -15 10 -4 10 -13 13
-26 9 -17 -6 -19 -3 -14 23 7 32 -13 47 -47 37 -13 -4 -19 -1 -19 8 0 9 5 17
12 19 7 3 9 12 5 22 -7 17 -9 18 -25 2 -10 -9 -23 -16 -29 -16 -6 0 -14 -6
-17 -12 -3 -7 -4 -4 -3 7 1 12 -3 19 -10 17 -9 -1 -13 10 -13 33 0 19 5 35 10
35 6 0 10 -5 10 -11 0 -5 5 -7 11 -3 6 3 9 14 6 23 -5 19 28 27 39 10 4 -6 10
-6 19 1 9 7 33 3 86 -14 76 -25 109 -29 109 -14 0 4 20 6 45 4 98 -10 244 27
363 90 35 19 76 34 90 34 l27 1 -25 14 c-14 8 -36 15 -50 15 -36 1 -5 20 33
20 15 0 27 5 27 11 0 8 22 9 73 5 97 -8 119 -8 130 3 6 6 2 8 -11 4 -14 -3
-24 0 -28 11 -5 12 -10 13 -26 5 -15 -8 -19 -8 -14 0 5 7 -5 11 -26 12 -33 1
-33 1 12 17 66 25 76 33 56 44 -10 6 -34 3 -68 -7 -69 -20 -80 -19 -40 5 35
21 43 42 15 39 -33 -3 -43 1 -43 16 0 8 5 15 10 15 6 0 10 -5 10 -11 0 -5 4
-7 10 -4 5 3 17 2 26 -3 20 -11 56 -4 48 9 -3 5 5 10 18 10 15 1 17 3 7 6 -11
2 -15 11 -12 23 3 12 -2 20 -16 25 -31 10 -25 26 7 20 26 -6 26 -6 8 9 -11 9
-37 16 -57 16 -46 0 -54 11 -61 87 -1 7 -5 10 -10 7 -4 -3 -20 7 -34 21 -20
20 -39 27 -87 31 -34 3 -66 10 -71 15 -6 5 -26 9 -45 9 -27 0 -32 3 -21 10 11
7 5 8 -20 3 -19 -3 -36 -9 -38 -12 -1 -3 -23 -4 -48 -2 -25 2 -56 -1 -68 -7
-11 -6 -57 -18 -101 -27 -147 -29 -163 -34 -208 -65 -25 -16 -49 -30 -53 -30
-5 0 -20 -9 -34 -20 -14 -11 -33 -20 -42 -20 -10 0 -18 -6 -19 -12 0 -7 -4 -5
-8 6 -7 18 -8 18 -25 1 -9 -10 -20 -15 -23 -11 -3 3 -12 -2 -18 -12 -19 -27
-6 -80 28 -113 27 -28 33 -42 36 -88 1 -7 7 -11 16 -8 8 4 17 2 20 -4 4 -5 -1
-12 -10 -16 -27 -10 -10 -129 22 -162 19 -18 12 -34 -18 -42 -20 -6 -21 -7 -4
-8 19 -2 19 -2 3 -15 -22 -16 -23 -52 -3 -59 20 -8 79 -132 72 -151 -4 -11
-19 -16 -42 -16 -29 0 -46 -9 -85 -46 -46 -43 -52 -46 -87 -39 -20 4 -46 13
-57 21 -11 8 -26 14 -34 14 -22 0 -62 -47 -62 -73 0 -21 -48 -87 -63 -87 -2 0
-7 10 -10 22 -5 18 -9 19 -21 9 -9 -7 -24 -10 -37 -6 -14 5 -19 4 -15 -4 4 -6
1 -11 -8 -11 -9 0 -13 -6 -10 -14 4 -11 -5 -17 -30 -22 -22 -4 -36 -12 -36
-21 0 -8 5 -11 12 -7 6 4 8 3 5 -4 -8 -11 -25 -11 -45 2 -8 5 -18 4 -25 -3 -8
-8 -7 -11 3 -11 7 0 10 -3 6 -7 -7 -8 -11 -9 -37 -12 -5 0 -7 -5 -4 -11 3 -6
-1 -7 -9 -4 -9 3 -16 1 -16 -5 0 -6 -6 -11 -14 -11 -8 0 -24 -11 -37 -24 -22
-23 -25 -24 -41 -9 -17 15 -18 14 -19 -8 0 -13 -3 -19 -5 -13 -6 14 -44 6 -44
-8 0 -5 -5 -6 -10 -3 -6 4 -8 15 -5 26 4 12 2 19 -7 19 -11 0 -11 2 0 9 10 6
10 10 -3 21 -24 20 -19 -36 11 -122 69 -190 123 -355 124 -375 0 -34 140 -319
199 -409 74 -111 362 -392 448 -437 35 -17 63 -35 63 -39 0 -3 -32 -18 -70
-33 -39 -15 -95 -47 -124 -71 -55 -44 -126 -121 -126 -136 0 -4 630 -8 1400
-8 l1400 0 -2 307 -3 306 -55 18 c-30 10 -93 37 -140 59 -47 23 -101 45 -120
48 -19 3 -52 18 -73 33 -21 15 -60 33 -87 40 -36 9 -64 26 -100 61 -28 27 -76
61 -108 76 -50 24 -62 36 -99 97 -23 39 -45 82 -48 96 -9 38 -39 62 -77 61
-52 -1 -63 10 -66 70 -2 29 -12 93 -22 142 -11 49 -18 91 -16 94 3 2 24 8 48
13 53 12 102 49 115 86 6 15 20 69 31 118 18 78 20 119 18 310 -2 205 -4 224
-26 278 -23 57 -57 102 -94 122 -15 9 -19 25 -21 80 -2 39 -9 106 -15 150 -7
44 -12 100 -11 124 1 25 -5 65 -13 90 -8 25 -14 64 -15 86 -1 48 -10 96 -22
110 -8 11 -22 62 -40 144 -5 25 -15 52 -23 60 -7 9 -17 27 -21 40 -4 13 -21
40 -39 60 -17 20 -47 59 -66 88 -19 29 -46 58 -60 65 -14 7 -39 23 -56 35 -17
13 -36 23 -42 23 -7 0 -12 4 -12 9 0 23 -58 75 -114 103 -62 31 -89 49 -154
104 -45 38 -216 124 -246 124 -12 0 -45 16 -73 35 -35 24 -64 35 -87 35 -20 0
-53 7 -73 15 -46 18 -176 46 -206 44 -12 -1 -78 -6 -147 -11z m1020 -1198 c0
-5 -9 -10 -19 -10 -11 0 -23 5 -26 10 -4 6 5 10 19 10 14 0 26 -4 26 -10z
m-521 -304 c-2 -2 -22 -6 -44 -9 -27 -4 -35 -3 -25 3 14 9 79 15 69 6z m21
-191 c-14 -8 -34 -14 -45 -14 -15 1 -13 4 10 14 40 19 67 18 35 0z m1042 -162
c28 -33 66 -108 72 -143 6 -33 5 -32 -20 15 -34 65 -47 74 -93 68 -55 -7 -63
13 -20 48 40 34 42 34 61 12z m-148 -202 c12 -13 16 -31 14 -57 -4 -38 -28
-61 -28 -27 0 11 -4 23 -9 29 -12 13 -22 60 -14 68 10 10 19 7 37 -13z m221
-70 c-9 -28 -26 -59 -38 -69 -12 -10 -30 -27 -40 -39 -18 -21 -18 -22 -1 -50
10 -15 23 -31 28 -35 21 -14 -22 -33 -85 -36 -62 -3 -66 -2 -77 24 -11 23 -10
29 10 49 13 12 33 35 46 50 18 21 25 25 36 15 11 -8 19 -8 35 2 12 7 21 16 21
20 0 4 14 23 30 41 17 19 30 43 30 54 0 20 10 36 18 29 2 -3 -4 -27 -13 -55z
m-1427 2 c13 -8 21 -20 19 -26 -6 -18 -85 -13 -105 7 -16 16 -16 18 2 32 21
15 46 11 84 -13z m182 -63 c0 -5 -9 -10 -19 -10 -11 0 -22 -6 -24 -12 -4 -8
-6 -7 -6 4 -1 16 12 26 37 27 6 1 12 -3 12 -9z m-10 -41 c-7 -11 -14 -19 -16
-16 -7 7 7 37 17 37 6 0 5 -9 -1 -21z m-24 -55 c-13 -12 -20 -14 -28 -6 -8 8
-5 14 13 21 31 11 36 6 15 -15z m158 -30 c27 -2 51 -5 52 -7 2 -2 4 -17 6 -35
1 -19 8 -32 16 -32 7 0 10 5 7 10 -9 14 7 12 28 -4 23 -18 22 -30 -3 -23 -10
3 -21 0 -23 -6 -5 -17 -51 -16 -64 2 -17 22 -16 31 2 31 8 0 15 7 15 15 0 18
-12 19 -28 3 -9 -9 -18 -9 -37 0 -15 7 -24 8 -20 2 3 -5 1 -10 -5 -10 -6 0 -8
-5 -4 -11 4 -8 -1 -9 -16 -4 -15 5 -25 2 -31 -6 -7 -12 -9 -12 -9 0 0 8 -8 20
-17 27 -17 12 -17 14 6 36 13 13 21 16 17 8 -4 -8 -1 -7 6 3 9 12 20 16 33 12
11 -4 42 -9 69 -11z m-200 -49 c3 -8 1 -15 -4 -15 -6 0 -10 7 -10 15 0 8 2 15
4 15 2 0 6 -7 10 -15z m1116 -17 c0 -6 7 -8 15 -5 20 8 28 -9 16 -30 -6 -10
-11 -12 -11 -5 0 6 -8 12 -19 12 -22 0 -45 25 -37 39 8 12 36 3 36 -11z m-734
-28 c8 0 14 -4 14 -9 0 -13 -35 -20 -51 -11 -10 7 -10 12 1 25 9 11 16 13 18
6 2 -6 10 -11 18 -11z m-1091 -90 c10 -17 -6 -59 -21 -53 -8 3 -20 0 -28 -6
-10 -9 -16 -8 -26 4 -11 13 -10 14 5 9 13 -5 16 -4 11 4 -7 11 11 17 42 13 6
-1 12 3 12 9 0 5 -4 10 -10 10 -5 0 -10 5 -10 10 0 13 17 13 25 0z m845 -27
c23 -10 22 -11 -15 -11 -45 0 -124 -14 -143 -26 -6 -4 -53 -13 -104 -21 -69
-10 -94 -11 -100 -2 -12 19 2 27 43 24 26 -2 48 2 62 13 13 9 44 17 74 18 56
2 103 16 103 31 0 5 12 4 28 -3 15 -7 38 -18 52 -23z m-870 -63 c0 -5 -4 -10
-10 -10 -5 0 -10 5 -10 10 0 6 5 10 10 10 6 0 10 -4 10 -10z m47 -6 c-3 -3
-12 -4 -19 -1 -8 3 -5 6 6 6 11 1 17 -2 13 -5z m59 -64 c8 0 11 6 7 17 -6 14
-1 15 38 8 24 -4 57 -7 73 -7 37 -1 21 -10 -67 -38 -38 -12 -71 -19 -74 -16
-4 3 0 6 8 7 8 0 6 4 -6 8 -23 9 -45 -7 -37 -29 4 -11 0 -11 -14 3 -12 11 -15
20 -8 25 5 4 19 25 29 47 l19 40 9 -32 c6 -18 16 -33 23 -33z m1114 -32 c0
-13 -23 -5 -28 10 -2 7 2 10 12 6 9 -3 16 -11 16 -16z m-437 -52 c18 -14 23
-61 7 -71 -6 -4 -21 -8 -35 -11 -13 -2 -36 -16 -50 -30 -22 -22 -33 -25 -62
-21 -27 5 -39 2 -49 -11 -9 -12 -28 -17 -67 -18 -30 -1 -65 -8 -78 -15 -13 -7
-46 -13 -74 -14 -27 -1 -58 -6 -69 -10 -34 -15 -51 7 -51 65 0 57 12 71 39 44
19 -18 18 -18 35 14 9 17 20 22 51 22 32 0 43 -6 64 -32 l26 -33 0 36 c0 43
15 58 63 66 30 4 38 2 52 -21 l18 -27 18 30 c26 42 37 46 71 21 28 -21 30 -21
43 -3 8 10 15 21 15 26 0 11 13 8 33 -7z m-123 -220 c0 -3 -4 -8 -10 -11 -5
-3 -10 -1 -10 4 0 6 5 11 10 11 6 0 10 -2 10 -4z m-540 -66 c0 -5 -4 -12 -10
-15 -5 -3 -10 -4 -10 -1 0 2 -3 12 -6 20 -5 12 -2 15 10 10 9 -3 16 -10 16
-14z m847 -250 c22 -17 23 -20 7 -20 -11 0 -25 9 -32 20 -7 11 -9 20 -6 20 3
0 17 -9 31 -20z m-131 -27 c-7 -18 4 -16 25 3 19 17 39 11 39 -12 0 -22 18
-17 22 7 3 18 5 19 22 6 28 -21 4 -44 -41 -39 -25 3 -33 0 -33 -12 0 -9 8 -16
18 -16 15 -1 15 -2 -2 -15 -25 -19 -46 -19 -46 0 0 8 -5 15 -11 15 -8 0 -8 5
1 15 10 12 10 15 0 15 -8 0 -10 3 -7 6 3 4 2 14 -3 24 -6 12 -5 17 6 17 8 0
13 -6 10 -14z m-92 -59 c10 -25 17 -46 15 -48 -2 -1 -28 -15 -58 -30 -43 -22
-56 -25 -62 -14 -4 7 -4 17 1 22 6 6 10 17 10 25 0 22 30 50 46 44 10 -4 14 3
14 21 0 39 13 31 34 -20z m-276 -62 c-2 -4 -10 -19 -17 -34 -15 -29 -38 -40
-28 -14 4 9 -2 17 -14 21 -21 7 -27 51 -6 58 14 5 70 -21 65 -31z"/>
<path d="M2225 1700 c-3 -5 -1 -10 4 -10 6 0 11 5 11 10 0 6 -2 10 -4 10 -3 0
-8 -4 -11 -10z"/>
<path d="M2550 3235 c7 -8 17 -15 22 -15 6 0 5 7 -2 15 -7 8 -17 15 -22 15 -6
0 -5 -7 2 -15z"/>
<path d="M2682 2948 c-16 -16 -15 -53 3 -68 16 -14 39 -4 28 13 -4 6 -8 22 -9
35 -4 31 -8 34 -22 20z"/>
<path d="M2716 2822 c-3 -6 -1 -14 5 -17 14 -9 20 -2 10 14 -6 8 -11 9 -15 3z"/>
<path d="M2920 2385 c12 -15 30 -12 30 6 0 5 -10 9 -21 9 -18 0 -19 -2 -9 -15z"/>
<path d="M2772 2339 c2 -6 8 -10 13 -10 5 0 11 4 13 10 2 6 -4 11 -13 11 -9 0
-15 -5 -13 -11z"/>
<path d="M2750 2290 c0 -5 5 -10 10 -10 6 0 10 5 10 10 0 6 -4 10 -10 10 -5 0
-10 -4 -10 -10z"/>
<path d="M2725 2270 c-3 -5 -1 -10 4 -10 6 0 11 5 11 10 0 6 -2 10 -4 10 -3 0
-8 -4 -11 -10z"/>
<path d="M2945 2250 c3 -5 11 -10 16 -10 6 0 7 5 4 10 -3 6 -11 10 -16 10 -6
0 -7 -4 -4 -10z"/>
<path d="M2368 1883 c6 -2 18 -2 25 0 6 3 1 5 -13 5 -14 0 -19 -2 -12 -5z"/>
<path d="M1425 1830 c-8 -13 5 -13 25 0 13 8 13 10 -2 10 -9 0 -20 -4 -23 -10z"/>
<path d="M1393 1785 c0 -18 19 -15 25 3 2 7 -3 12 -10 12 -8 0 -15 -7 -15 -15z"/>
<path d="M0 80 l0 -80 228 0 c199 1 225 2 208 15 -10 8 -42 22 -70 30 -28 9
-59 20 -68 26 -10 5 -31 9 -48 9 -17 0 -43 9 -58 19 -15 11 -53 25 -84 31 -32
6 -60 16 -63 21 -4 5 -15 9 -26 9 -17 0 -19 -7 -19 -80z"/>
</g>
</svg>
